<?xml version="1.0" standalone="no"?> <!DOCTYPE svg PUBLIC "-//W3C//DTD SVG 1.0//EN" "http://www.w3.org/TR/2001/REC-SVG-20010904/DTD/svg10.dtd" > <svg xmlns="http://www.w3.org/2000/svg" width="100%" height="100%">
<defs >
<font id="helvetica_lt_55_roman" horiz-adv-x="447" ><font-face
    font-family="HelveticaNeue LT 55 Roman"
    units-per-em="1000"
    panose-1="2 0 5 3 4 0 0 2 0 4"
    ascent="750"
    descent="-170"
    alphabetic="0" />
<missing-glyph horiz-adv-x="500" d="M442 8V504H58V8H442ZM50 512H450V0H50V512Z" />
<glyph unicode=" " glyph-name="space" horiz-adv-x="278" />
<glyph unicode="!" glyph-name="exclam" horiz-adv-x="259" d="M177 714H82V494L107 183H152L177 494V714ZM74 0H185V111H74V0Z" />
<glyph unicode="&quot;" glyph-name="quotedbl" horiz-adv-x="426" d="M109 456H177V714H109V456ZM249 456H317V714H249V456Z" />
<glyph unicode="#" glyph-name="numbersign" horiz-adv-x="556" d="M102 0H171L200 206H324L295 0H364L393 206H494V274H403L424 424H522V492H433L462 697H393L364 492H240L269 697H200L171 492H60V424H162L141 274H34V206H131L102 0ZM355 424L334 274H210L231 424H355Z" />
<glyph unicode="$" glyph-name="dollar" horiz-adv-x="556" d="M251 417Q226 424 205 433T169 454T145 485T136 530Q136 587 169 616T251 651V417ZM306 314Q333 306 357 297T398 273T425 239T435 191Q435 159 426 136T399 97T358 74T306 63V314ZM25 218Q33 114
92 54T251 -17V-99H306V-17Q354 -13 394 3T463 47T508 113T525 200Q525 246 508 279T465 334T413 368T366 386L306 402V648Q398 631 418 532H503Q483 619 435 669T306 730V797H251V731Q208 728 171 712T106 669T62 604T46 521Q46 477 58 446T95 393T159 356T251
328V63Q191 73 152 112T110 218H25Z" />
<glyph unicode="%" glyph-name="percent" horiz-adv-x="1000" d="M188 -22H274L811 722H726L188 -22ZM586 186Q586 145 594 109T622 46T672 4T748 -12Q791 -12 821 5T871 49T899 113T908 189Q908 230 901 266T875 330T825 373T748 389Q702 389 671 373T621 328T594
263T586 186ZM661 188Q661 210 664 236T676 283T703 319T748 334Q776 334 793 320T819 284T830 237T833 189Q833 166 830 140T818 93T791 57T745 43Q717 43 701 57T675 93T664 140T661 188ZM92 506Q92 465 100 429T128 366T178 324T254 308Q297 308 327 325T377
369T405 433T414 509Q414 550 407 586T381 650T331 693T254 709Q208 709 177 693T127 648T100 583T92 506ZM167 508Q167 530 170 556T182 603T209 639T254 654Q282 654 299 640T325 604T336 557T339 509Q339 486 336 460T324 413T297 377T251 363Q223 363 207 377T181
413T170 460T167 508Z" />
<glyph unicode="&amp;" glyph-name="ampersand" horiz-adv-x="630" d="M411 148Q385 109 347 86T259 63Q233 63 209 72T165 96T135 134T123 184Q123 216 133 239T160 282T199 316T247 345L411 148ZM534 0H645L506 161Q517 185 525 203T538 241T547 282T554 337H473Q470
280 450 226L321 383Q347 398 371 416T414 458T444 508T455 568Q455 604 441 631T402 677T347 705T282 714Q243 714 213 702T163 670T132 623T121 567Q121 540 127 518T145 477T171 439T200 399Q166 381 136 361T83 315T47 257T33 183Q33 161 40 128T72 64T140
11T256 -12Q285 -12 314 -6T370 13T419 45T458 89L534 0ZM275 439Q263 454 251 469T229 499T213 531T206 563Q206 602 232 620T288 639Q326 639 348 617T370 563Q370 540 361 522T338 488T307 461T275 439Z" />
<glyph unicode="&apos;" glyph-name="quotesingle" horiz-adv-x="278" d="M105 456H173V714H105V456Z" />
<glyph unicode="(" glyph-name="parenleft" horiz-adv-x="259" d="M269 -198Q198 -83 168 30T137 270Q137 392 167 505T269 731H204Q127 628 87 508T47 270Q47 139 89 27T204 -198H269Z" />
<glyph unicode=")" glyph-name="parenright" horiz-adv-x="259" d="M55 -198Q132 -95 172 25T212 263Q212 329 201 389T170 506T120 619T55 731H-10Q61 616 91 503T122 263Q122 141 92 28T-10 -198H55Z" />
<glyph unicode="*" glyph-name="asterisk" horiz-adv-x="352" d="M201 714H148V601L42 641L24 593L130 555L65 464L110 433L175 529L244 433L285 464L219 555L328 593L308 641L201 601V714Z" />
<glyph unicode="+" glyph-name="plus" horiz-adv-x="600" d="M334 506H266V287H48V219H266V0H334V219H552V287H334V506Z" />
<glyph unicode="," glyph-name="comma" horiz-adv-x="278" d="M83 0H142Q143 -12 140 -26T131 -55T113 -80T84 -97V-147Q142 -130 168 -89T194 10V111H83V0Z" />
<glyph unicode="-" glyph-name="hyphen" horiz-adv-x="389" d="M50 238H339V318H50V238Z" />
<glyph unicode="." glyph-name="period" horiz-adv-x="278" d="M83 0H194V111H83V0Z" />
<glyph unicode="/" glyph-name="slash" horiz-adv-x="333" d="M-18 -17H55L351 731H278L-18 -17Z" />
<glyph unicode="0" glyph-name="zero" horiz-adv-x="556" d="M42 348Q42 309 44 267T54 185T77 110T118 47T183 4T278 -12Q333 -12 372 4T438 47T479 109T502 185T512 267T514 348Q514 407 509 470T480 587T409 674T278 709Q195 709 148 675T77 587T48 471T42
348ZM132 349Q132 375 132 406T137 469T150 531T175 583T217 620T278 634Q314 634 339 620T380 584T405 531T418 470T423 407T424 349Q424 309 422 260T406 167T362 93T278 63Q224 63 194 93T151 166T135 259T132 349Z" />
<glyph unicode="1" glyph-name="one" horiz-adv-x="556" d="M356 709H291Q284 669 265 643T219 602T157 582T87 576V508H271V0H356V709Z" />
<glyph unicode="2" glyph-name="two" horiz-adv-x="556" d="M129 458Q128 490 135 521T160 578T203 618T267 634Q295 634 320 625T363 599T393 559T404 506Q404 469 393 441T359 389T302 342T223 290Q185 267 152 243T92 185T47 108T24 0H487V75H123Q129 108 148
133T195 181T256 222T322 262Q355 283 386 306T441 357T479 422T494 505Q494 554 477 592T429 656T359 695T272 709Q216 709 172 690T99 638T56 558T44 458H129Z" />
<glyph unicode="3" glyph-name="three" horiz-adv-x="556" d="M218 333Q242 336 269 336Q300 336 328 328T376 302T408 259T420 200Q420 168 408 143T374 100T325 73T266 63Q193 63 155 106T115 219H30Q29 164 45 121T93 49T168 4T266 -12Q316 -12 360 2T438 43T490
110T510 204Q510 268 479 315T382 376V378Q423 397 451 434T480 519Q480 568 464 604T418 663T350 697T264 709Q211 709 171 692T103 645T62 573T45 480H130Q130 511 138 539T162 588T204 621T264 634Q318 634 354 605T390 520Q390 491 379 470T350 434T307 412T255
404Q246 404 237 404Q228 404 218 405V333Z" />
<glyph unicode="4" glyph-name="four" horiz-adv-x="556" d="M419 709H351L28 248V166H339V0H419V166H515V241H419V709ZM101 241L337 588H339V241H101Z" />
<glyph unicode="5" glyph-name="five" horiz-adv-x="556" d="M470 697H199H120L54 329L127 325Q152 355 185 373T259 392Q295 392 324 380T375 347T407 296T419 231Q419 189 407 158T375 105T327 74T269 63Q237 63 211 72T165 99T134 140T120 191H35Q36 143 54
106T103 42T174 2T261 -12Q323 -12 369 8T447 61T493 136T509 224Q509 285 491 330T442 406T369 452T280 467Q244 467 208 455T148 416L146 418L184 622H470V697Z" />
<glyph unicode="6" glyph-name="six" horiz-adv-x="556" d="M286 381Q322 381 349 368T394 334T420 283T429 220Q429 188 420 160T392 110T347 76T286 63Q251 63 224 75T178 109T149 159T139 221Q139 254 148 283T177 334T223 368T286 381ZM499 528Q491 615 439
662T299 709Q223 709 173 677T93 592T51 471T38 329Q38 273 46 213T81 103T155 21T282 -12Q349 -12 394 10T467 68T507 145T519 226Q519 275 504 317T462 390T394 438T302 456Q244 456 200 434T125 363L123 365Q124 406 131 453T156 540T207 607T295 634Q346 634
377 605T414 528H499Z" />
<glyph unicode="7" glyph-name="seven" horiz-adv-x="556" d="M509 697H50V617H422Q366 558 318 488T232 340T172 176T142 0H237Q242 83 265 171T324 342T408 498T509 624V697Z" />
<glyph unicode="8" glyph-name="eight" horiz-adv-x="556" d="M130 200Q130 231 141 256T173 299T221 326T280 336Q310 336 336 326T383 297T414 255T426 201Q426 171 416 146T386 103T340 74T281 63Q215 63 173 99T130 200ZM65 528Q65 480 92 440T164 381Q104
360 72 314T40 204Q40 150 58 110T109 42T186 2T281 -12Q330 -12 373 2T447 44T497 112T516 204Q516 270 485 315T390 381Q434 401 461 440T488 528Q488 562 476 594T439 652T372 693T273 709Q232 709 195 697T128 662T82 606T65 528ZM155 525Q155 552 165 572T191
606T230 627T279 634Q331 634 364 607T398 525Q398 471 365 441T281 411Q255 411 232 418T192 439T165 474T155 525Z" />
<glyph unicode="9" glyph-name="nine" horiz-adv-x="556" d="M409 472Q409 440 399 412T370 363T324 329T264 316Q233 316 208 328T164 362T135 410T124 466Q124 499 131 529T155 582T198 620T263 634Q299 634 326 621T371 586T399 534T409 472ZM49 171Q53 125
70 91T116 34T181 0T264 -12Q393 -12 451 87T510 370Q510 470 491 536T438 640T361 693T267 709Q216 709 173 692T99 645T51 572T34 478Q34 425 48 382T91 307T162 259T258 241Q310 241 354 267T422 339L424 337Q420 199 381 131T264 63Q213 63 176 91T134 171H49Z"
/>
<glyph unicode=":" glyph-name="colon" horiz-adv-x="278" d="M83 0H194V111H83V0ZM194 517H83V406H194V517Z" />
<glyph unicode=";" glyph-name="semicolon" horiz-adv-x="278" d="M83 0H142Q143 -12 140 -26T131 -55T113 -80T84 -97V-147Q142 -130 168 -89T194 10V111H83V0ZM194 517H83V406H194V517Z" />
<glyph unicode="&lt;" glyph-name="less" horiz-adv-x="600" d="M554 514L46 284V222L554 -8V60L129 253L554 446V514Z" />
<glyph unicode="=" glyph-name="equal" horiz-adv-x="600" d="M552 388H48V320H552V388ZM48 118H552V186H48V118Z" />
<glyph unicode="&gt;" glyph-name="greater" horiz-adv-x="600" d="M46 -8L554 222V284L46 514V446L471 253L46 60V-8Z" />
<glyph unicode="?" glyph-name="question" horiz-adv-x="556" d="M140 491Q140 525 148 555T173 608T217 643T279 656Q333 656 364 625T400 539Q402 511 396 490T378 451T352 418T322 388T291 357T262 320T241 276T232 221V174H317V213Q317 238 324 259T344 297T372
330T404 361Q420 377 435 394T463 431T482 475T490 531Q490 579 475 616T431 678T364 717T279 731Q226 731 185 713T114 663T70 586T55 491H140ZM218 0H329V111H218V0Z" />
<glyph unicode="@" glyph-name="at" horiz-adv-x="800" d="M420 505Q436 505 450 497T476 477T494 447T501 412Q501 381 489 344T456 275T407 221T346 199Q308 199 284 226T260 296Q260 329 272 365T305 433T355 484T420 505ZM618 554H555L532 491Q515 536 485
554T420 573Q367 573 324 548T250 483T202 392T185 289Q185 256 195 227T224 177T269 144T328 131Q365 131 397 151T452 198H455Q457 165 475 149T519 133Q554 133 595 154T671 213T729 304T753 423Q753 490 726 547T653 644T544 708T413 731Q337 731 270 702T152
623T72 505T42 360Q42 281 71 212T150 92T269 12T417 -17Q465 -17 511 -5T597 29T672 85T730 159H667Q646 132 618 110T558 71T490 47T419 38Q356 38 300 62T202 129T135 230T110 355Q110 421 133 479T198 581T294 650T414 676Q466 676 515 658T602 607T662 525T685
418Q685 378 672 337T639 263T595 209T547 188Q534 188 529 196T523 219Q523 230 526 243T534 270L618 554Z" />
<glyph unicode="A" glyph-name="A" horiz-adv-x="648" d="M-7 0H91L171 215H473L551 0H656L377 714H272L-7 0ZM322 628H324L443 295H201L322 628Z" />
<glyph unicode="B" glyph-name="B" horiz-adv-x="685" d="M173 327H390Q420 327 448 322T497 303T532 266T545 208Q545 149 509 115T411 80H173V327ZM78 0H423Q476 0 516 17T584 63T626 129T640 205Q640 271 605 317T504 377V379Q554 399 582 440T610 539Q610
592 586 629T526 688Q510 698 487 703T439 710T387 713T337 714H78V0ZM173 634H363Q394 634 421 631T470 615T503 581T515 521Q515 464 480 436T363 407H173V634Z" />
<glyph unicode="C" glyph-name="C" horiz-adv-x="722" d="M675 499Q667 556 641 599T576 672T487 716T381 731Q298 731 235 702T130 621T65 502T43 355Q43 277 63 209T125 91T228 12T373 -17Q509 -17 588 59T682 269H587Q584 225 569 187T528 122T465 79T381 63Q317
63 271 87T196 151T152 246T138 362Q138 418 152 470T195 562T270 627T380 651Q417 651 450 642T509 613T554 566T580 499H675Z" />
<glyph unicode="D" glyph-name="D" horiz-adv-x="704" d="M78 0H323Q412 0 477 25T584 97T646 214T666 374Q666 546 577 630T323 714H78V0ZM173 634H333Q399 634 444 615T517 561T558 476T571 361Q571 295 558 249T523 171T476 122T422 95T371 83T331 80H173V634Z" />
<glyph unicode="E" glyph-name="E" horiz-adv-x="611" d="M78 0H574V80H173V327H544V407H173V634H571V714H78V0Z" />
<glyph unicode="F" glyph-name="F" horiz-adv-x="574" d="M78 0H173V327H501V407H173V634H547V714H78V0Z" />
<glyph unicode="G" glyph-name="G" horiz-adv-x="759" d="M637 0H697V376H384V296H612Q614 247 600 205T555 131T482 81T383 63Q323 63 278 86T201 149T154 240T138 348Q138 405 152 459T195 556T271 625T383 651Q423 651 458 642T522 613T569 564T595 494H690Q680
557 653 601T585 675T493 717T383 731Q298 731 235 700T129 615T65 492T43 343Q43 273 66 208T133 93T240 13T383 -17Q414 -17 446 -11T508 8T564 41T612 89L637 0Z" />
<glyph unicode="H" glyph-name="H" horiz-adv-x="722" d="M78 0H173V327H549V0H644V714H549V407H173V714H78V0Z" />
<glyph unicode="I" glyph-name="I" horiz-adv-x="259" d="M82 0H177V714H82V0Z" />
<glyph unicode="J" glyph-name="J" horiz-adv-x="519" d="M441 714H346V192Q346 133 322 98T232 63Q197 63 175 73T140 103T122 148T117 205V235H22V191Q22 90 76 37T230 -17Q290 -17 330 0T395 44T430 107T441 178V714Z" />
<glyph unicode="K" glyph-name="K" horiz-adv-x="667" d="M78 0H173V250L292 361L550 0H670L357 426L658 714H535L173 358V714H78V0Z" />
<glyph unicode="L" glyph-name="L" horiz-adv-x="556" d="M78 0H551V80H173V714H78V0Z" />
<glyph unicode="M" glyph-name="M" horiz-adv-x="871" d="M80 0H170V594H172L395 0H476L699 594H701V0H791V714H661L435 114L210 714H80V0Z" />
<glyph unicode="N" glyph-name="N" horiz-adv-x="722" d="M77 0H167V573H169L542 0H646V714H556V135H554L178 714H77V0Z" />
<glyph unicode="O" glyph-name="O" horiz-adv-x="760" d="M38 357Q38 284 59 217T124 97T231 14T380 -17Q465 -17 529 14T636 97T700 216T722 357Q722 430 701 497T636 617T529 700T380 731Q295 731 231 700T124 617T60 498T38 357ZM133 357Q133 411 147 463T191
558T268 625T380 651Q445 651 492 626T569 558T613 464T627 357Q627 303 613 251T569 156T492 89T380 63Q315 63 268 88T191 156T147 250T133 357Z" />
<glyph unicode="P" glyph-name="P" horiz-adv-x="648" d="M78 0H173V292H391Q498 291 554 347T610 503Q610 603 554 658T391 714H78V0ZM173 634H359Q440 634 477 601T515 503Q515 439 478 405T359 372H173V634Z" />
<glyph unicode="Q" glyph-name="Q" horiz-adv-x="760" d="M708 -2L614 73Q668 126 695 200T722 357Q722 430 701 497T636 617T529 700T380 731Q295 731 231 700T124 617T60 498T38 357Q38 284 59 217T124 97T231 14T380 -17Q479 -17 551 26L660 -62L708 -2ZM400
146L479 83Q433 63 380 63Q315 63 268 88T191 156T147 250T133 357Q133 411 147 463T191 558T268 625T380 651Q445 651 492 626T569 558T613 464T627 357Q627 292 607 231T545 128L450 204L400 146Z" />
<glyph unicode="R" glyph-name="R" horiz-adv-x="685" d="M173 385V634H409Q476 634 506 600T536 512Q536 473 523 449T487 410T434 390T371 385H173ZM78 0H173V305H405Q439 305 460 295T495 267T514 226T524 176Q529 150 530 123T532 73T536 30T550 0H656Q641
18 634 41T623 90T618 143T614 197Q611 223 606 247T589 290T558 324T507 344V346Q572 364 601 413T631 527Q631 613 573 663T414 714H78V0Z" />
<glyph unicode="S" glyph-name="S" horiz-adv-x="648" d="M581 505Q579 564 558 606T502 677T420 718T318 731Q269 731 223 719T140 681T81 616T59 522Q59 473 78 441T130 388T204 355T288 333T372 315T445 291T496 253T516 193Q516 154 500 129T458 90T400 69T335
63Q294 63 257 73T191 104T145 157T127 235H37Q37 170 60 123T124 44T218 -2T332 -17Q381 -17 430 -5T520 32T585 98T611 196Q611 248 592 283T540 342T467 378T383 402T299 420T226 442T174 475T154 529Q154 564 167 587T203 625T255 645T314 651Q388 651 435
617T491 505H581Z" />
<glyph unicode="T" glyph-name="T" horiz-adv-x="574" d="M240 0H335V634H573V714H2V634H240V0Z" />
<glyph unicode="U" glyph-name="U" horiz-adv-x="722" d="M648 714H553V258Q553 163 506 113T367 63Q272 63 221 113T169 258V714H74V258Q74 187 94 135T151 49T243 -1T367 -17Q501 -17 574 52T648 258V714Z" />
<glyph unicode="V" glyph-name="V" horiz-adv-x="611" d="M613 714H514L308 95H306L102 714H-1L251 0H359L613 714Z" />
<glyph unicode="W" glyph-name="W" horiz-adv-x="926" d="M914 714H819L674 120H672L514 714H411L251 120H249L109 714H12L195 0H294L459 600H461L624 0H723L914 714Z" />
<glyph unicode="X" glyph-name="X" horiz-adv-x="611" d="M-1 0H106L304 295L496 0H612L361 367L597 714H491L305 435L127 714H13L248 367L-1 0Z" />
<glyph unicode="Y" glyph-name="Y" horiz-adv-x="648" d="M646 714H538L329 374L115 714H2L278 292V0H373V292L646 714Z" />
<glyph unicode="Z" glyph-name="Z" horiz-adv-x="611" d="M22 0H590V80H135L578 634V714H56V634H466L22 80V0Z" />
<glyph unicode="[" glyph-name="bracketleft" horiz-adv-x="259" d="M259 731H72V-198H259V-130H152V663H259V731Z" />
<glyph unicode="\" glyph-name="backslash" horiz-adv-x="333" d="M55 731H-18L278 -17H351L55 731Z" />
<glyph unicode="]" glyph-name="bracketright" horiz-adv-x="259" d="M0 -198H187V731H0V663H107V-130H0V-198Z" />
<glyph unicode="^" glyph-name="asciicircum" horiz-adv-x="600" d="M50 264H121L299 624L480 264H550L332 697H268L50 264Z" />
<glyph unicode="_" glyph-name="underscore" horiz-adv-x="500" d="M0 -125H500V-75H0V-125Z" />
<glyph unicode="`" glyph-name="grave" horiz-adv-x="222" d="M108 588H172L86 731H-23L108 588Z" />
<glyph unicode="a" glyph-name="a" horiz-adv-x="537" d="M384 180Q384 162 375 142T347 104T298 75T226 63Q206 63 188 67T157 80T135 103T126 139Q126 163 134 179T157 205T190 222T230 232T273 238T316 244T354 253T384 267V180ZM522 68Q508 63 496 63Q476
63 473 77T469 121V387Q469 432 452 460T407 503T345 524T275 529Q232 529 193 520T124 491T76 437T56 356H141Q144 413 180 433T270 454Q290 454 310 451T347 439T374 413T385 368Q385 344 371 332T333 313T278 303T211 292Q178 286 147 277T91 250T51 205T36
133Q36 94 49 67T86 22T140 -4T207 -12Q261 -12 307 7T389 68Q389 26 408 7T461 -12Q499 -12 522 2V68Z" />
<glyph unicode="b" glyph-name="b" horiz-adv-x="593" d="M467 263Q467 225 459 189T433 125T385 80T312 63Q268 63 237 79T187 123T158 185T149 259Q149 295 157 330T185 392T234 437T307 454Q348 454 378 438T428 395T457 334T467 263ZM67 0H152V69H154Q168
46 188 31T232 6T278 -8T321 -12Q380 -12 424 9T498 67T542 153T557 257Q557 312 542 361T498 447T424 507T319 529Q265 529 220 510T154 447H152V714H67V0Z" />
<glyph unicode="c" glyph-name="c" horiz-adv-x="537" d="M503 351Q498 397 480 430T431 486T363 518T280 529Q218 529 173 508T97 449T51 361T36 252Q36 194 51 146T97 62T173 8T278 -12Q376 -12 434 41T506 189H419Q411 130 375 97T277 63Q236 63 208 79T161
121T135 182T126 252Q126 291 134 327T160 392T210 437T287 454Q340 454 372 427T415 351H503Z" />
<glyph unicode="d" glyph-name="d" horiz-adv-x="593" d="M526 714H441V448H439Q425 471 405 486T361 511T315 525T272 529Q213 529 169 508T95 449T51 364T36 260Q36 205 51 156T95 70T169 10T274 -12Q328 -12 373 7T439 70H441V0H526V714ZM126 254Q126 292 134
328T160 392T207 437T281 454Q325 454 356 438T406 394T435 332T444 258Q444 222 436 187T408 125T359 80T286 63Q245 63 215 79T165 122T136 183T126 254Z" />
<glyph unicode="e" glyph-name="e" horiz-adv-x="537" d="M421 164Q410 113 375 88T287 63Q245 63 214 77T163 114T134 168T126 233H513Q515 280 505 332T467 428T394 500T279 529Q226 529 182 509T105 453T54 368T36 260Q38 201 53 151T100 65T176 9T284 -12Q372
-12 430 33T505 164H421ZM126 308Q128 338 139 364T169 411T214 442T274 454Q305 454 332 443T378 412T409 365T423 308H126Z" />
<glyph unicode="f" glyph-name="f" horiz-adv-x="296" d="M99 0H184V442H284V517H184V589Q184 623 201 635T249 647Q260 647 273 646T297 640V714Q285 718 270 720T242 722Q172 722 136 690T99 594V517H12V442H99V0Z" />
<glyph unicode="g" glyph-name="g" horiz-adv-x="574" d="M272 69Q230 69 202 86T157 132T133 196T126 266Q126 303 134 337T161 397T209 438T279 454Q319 454 347 438T392 396T418 336T426 269Q426 233 418 197T391 133T344 87T272 69ZM510 517H430V443H429Q406
486 365 507T275 529Q208 529 162 504T88 438T48 350T36 256Q36 203 50 156T94 72T166 15T267 -6Q291 -6 315 0T361 17T400 46T428 88H430V54Q430 10 422 -26T394 -87T346 -127T275 -142Q254 -142 231 -138T189 -123T156 -97T141 -58H56Q58 -100 78 -129T128 -176T196
-202T270 -210Q393 -210 451 -147T510 44V517Z" />
<glyph unicode="h" glyph-name="h" horiz-adv-x="556" d="M64 0H149V292Q149 327 158 356T187 408T234 442T302 454Q351 454 379 426T407 350V0H492V340Q492 382 484 416T454 476T399 515T314 529Q291 529 267 524T220 509T180 481T151 441H149V714H64V0Z" />
<glyph unicode="i" glyph-name="i" horiz-adv-x="222" d="M69 0H154V517H69V0ZM154 714H69V610H154V714Z" />
<glyph unicode="j" glyph-name="j" horiz-adv-x="222" d="M154 517H69V-52Q69 -92 59 -107T21 -123Q12 -123 3 -123Q-5 -123 -14 -121V-194Q-3 -196 8 -197T30 -198Q87 -198 120 -167T154 -66V517ZM154 714H69V610H154V714Z" />
<glyph unicode="k" glyph-name="k" horiz-adv-x="519" d="M69 0H154V196L234 270L411 0H519L299 329L504 517H390L154 291V714H69V0Z" />
<glyph unicode="l" glyph-name="l" horiz-adv-x="222" d="M69 0H154V714H69V0Z" />
<glyph unicode="m" glyph-name="m" horiz-adv-x="853" d="M64 0H149V322Q149 337 156 359T180 403T223 439T287 454Q315 454 334 446T364 422T379 385T384 339V0H469V322Q469 382 505 418T604 454Q635 454 654 445T685 421T700 384T704 339V0H789V379Q789 419
777 447T742 494T688 520T617 529Q567 529 524 506T455 441Q439 489 400 509T313 529Q204 529 146 441H144V517H64V0Z" />
<glyph unicode="n" glyph-name="n" horiz-adv-x="556" d="M64 0H149V292Q149 327 158 356T187 408T234 442T302 454Q351 454 379 426T407 350V0H492V340Q492 382 484 416T454 476T399 515T314 529Q258 529 216 506T146 435H144V517H64V0Z" />
<glyph unicode="o" glyph-name="o" horiz-adv-x="574" d="M36 258Q36 201 52 152T100 67T178 9T287 -12Q348 -12 395 9T474 66T522 152T538 258Q538 315 522 364T474 450T395 508T287 529Q225 529 179 508T100 451T52 365T36 258ZM126 258Q126 305 138 341T173
403T224 441T287 454Q320 454 349 441T401 403T435 342T448 258Q448 211 436 175T401 114T350 76T287 63Q254 63 225 76T173 113T139 174T126 258Z" />
<glyph unicode="p" glyph-name="p" horiz-adv-x="593" d="M467 263Q467 225 459 189T433 125T385 80T312 63Q268 63 237 79T187 123T158 185T149 259Q149 295 157 330T185 392T234 437T307 454Q348 454 378 438T428 395T457 334T467 263ZM67 -198H152V69H154Q168
46 188 31T232 6T278 -8T321 -12Q380 -12 424 9T498 67T542 153T557 257Q557 312 542 361T498 447T424 507T319 529Q265 529 220 510T154 447H152V517H67V-198Z" />
<glyph unicode="q" glyph-name="q" horiz-adv-x="593" d="M526 517H441V448H439Q425 471 405 486T361 511T315 525T272 529Q213 529 169 508T95 449T51 364T36 260Q36 205 51 156T95 70T169 10T274 -12Q328 -12 373 7T439 70H441V-198H526V517ZM126 254Q126 292
134 328T160 392T207 437T281 454Q325 454 356 438T406 394T435 332T444 258Q444 222 436 187T408 125T359 80T286 63Q245 63 215 79T165 122T136 183T126 254Z" />
<glyph unicode="r" glyph-name="r" horiz-adv-x="333" d="M61 0H146V230Q146 279 156 318T188 384T246 425T333 439V529Q264 531 219 501T143 408H141V517H61V0Z" />
<glyph unicode="s" glyph-name="s" horiz-adv-x="500" d="M31 163Q33 115 51 82T99 28T167 -2T250 -12Q289 -12 328 -4T399 23T450 73T470 151Q470 188 456 213T418 254T364 281T301 298Q271 305 241 311T187 327T148 351T132 388Q132 407 142 420T168 440T203
451T242 454Q263 454 283 450T320 435T348 409T362 367H447Q444 414 427 445T382 495T316 521T235 529Q201 529 167 521T105 495T60 449T42 382Q42 345 56 320T95 279T149 253T211 236T273 223T327 206T365 181T380 140Q380 116 368 101T338 77T297 66T255 63Q229
63 205 68T161 84T129 115T116 163H31Z" />
<glyph unicode="t" glyph-name="t" horiz-adv-x="315" d="M182 672H97V517H9V442H97V113Q97 77 104 55T125 21T163 5T220 0H285V75H246Q226 75 214 76T194 83T185 97T182 121V442H285V517H182V672Z" />
<glyph unicode="u" glyph-name="u" horiz-adv-x="556" d="M492 517H407V225Q407 190 398 161T369 109T322 75T254 63Q205 63 177 91T149 167V517H64V177Q64 135 72 101T102 41T157 2T242 -12Q298 -12 340 11T410 82H412V0H492V517Z" />
<glyph unicode="v" glyph-name="v" horiz-adv-x="500" d="M486 517H397L256 86H254L109 517H14L206 0H297L486 517Z" />
<glyph unicode="w" glyph-name="w" horiz-adv-x="758" d="M741 517H653L537 94H535L427 517H334L230 94H228L111 517H17L183 0H275L379 411H381L486 0H576L741 517Z" />
<glyph unicode="x" glyph-name="x" horiz-adv-x="518" d="M9 0H112L256 214L400 0H509L309 279L487 517H385L256 336L132 517H23L203 272L9 0Z" />
<glyph unicode="y" glyph-name="y" horiz-adv-x="500" d="M492 517H402L257 94H255L104 517H8L213 3L178 -85Q166 -108 150 -120T108 -132Q95 -132 83 -128T58 -120V-198Q72 -203 87 -205T117 -207Q145 -207 167 -200T206 -176T237 -133T267 -69L492 517Z" />
<glyph unicode="z" glyph-name="z" horiz-adv-x="480" d="M22 0H458V75H128L444 459V517H42V442H334L22 65V0Z" />
<glyph unicode="{" glyph-name="braceleft" horiz-adv-x="333" d="M309 731H239Q220 731 201 723T167 698T141 657T131 600V418Q131 392 124 370T106 333T79 309T48 300V232Q80 232 105 201T131 115V-67Q131 -99 141 -123T166 -164T201 -189T239 -198H309V-138H259Q244
-138 235 -131T221 -111T213 -83T211 -52V131Q211 169 201 194T176 235T148 257T124 265V268Q133 270 147 278T176 302T200 342T211 402V585Q211 601 213 616T220 644T235 663T259 671H309V731Z" />
<glyph unicode="|" glyph-name="bar" horiz-adv-x="222" d="M77 -214H145V786H77V-214Z" />
<glyph unicode="}" glyph-name="braceright" horiz-adv-x="333" d="M24 -198H94Q113 -198 132 -190T166 -165T192 -124T202 -67V115Q202 141 209 162T227 199T254 223T285 232V300Q269 300 254 308T228 331T209 369T202 418V600Q202 632 192 656T167 697T132 722T94
731H24V671H74Q89 671 98 664T112 644T120 615T122 583V402Q122 364 132 339T157 298T185 276T209 268V265Q200 263 186 255T157 231T133 191T122 131V-52Q122 -68 120 -83T113 -111T98 -130T74 -138H24V-198Z" />
<glyph unicode="~" glyph-name="asciitilde" horiz-adv-x="600" d="M495 319Q486 306 477 293T458 268T435 250T407 243Q387 243 360 257T305 283Q276 296 248 305T194 315Q169 315 150 308T115 288T89 261T69 229L105 179Q111 192 118 205T136 230T159 248T189
255Q224 255 252 243T304 216Q329 202 353 193T406 183Q429 183 447 190T480 210T507 237T531 269L495 319Z" />
<glyph unicode="&#x80;" glyph-name="Euro" horiz-adv-x="556" d="M558 662Q535 678 515 689T473 709T429 721T377 725Q315 725 267 703T184 644T127 556T93 450H39L13 389H86Q85 381 85 373Q85 365 85 357Q85 352 85 347Q85 342 86 337H40L13 276H90Q99 214 119
161T174 68T259 6T377 -17Q423 -17 457 -8T531 28V133Q495 99 462 80T377 61Q330 61 297 79T242 128T206 197T187 276H405L431 337H182Q181 342 181 347Q181 353 181 358Q181 366 181 373Q181 381 182 389H445L472 450H189Q196 485 209 520T245 584T297 630T369
648Q416 648 448 630T512 579L558 662Z" />
</font>
</defs>
</svg>
